<?xml version="1.0" encoding="UTF-8"?>
<svg version="1.1" xmlns="http://www.w3.org/2000/svg" viewBox="320 280 400 450">
<path d="M0 0 C1.29115807 6.2093185 2.43593395 12.40643268 3.3125 18.6875 C3.43439697 19.54561279 3.55629395 20.40372559 3.68188477 21.2878418 C4.56157559 27.58387674 5.37149831 33.88785867 6.1640625 40.1953125 C6.58824881 43.56774528 7.01260316 46.94015666 7.4375 50.3125 C7.59801849 51.58676849 7.59801849 51.58676849 7.76177979 52.88677979 C9.40319299 65.86471404 11.33510616 78.75877854 13.59326172 91.64501953 C14.99407861 99.7556316 16.33008933 107.74776672 16 116 C10.45463392 112.14695272 5.77582876 107.89796584 1.17578125 102.953125 C-1.12651974 100.88642752 -3.08103033 99.96106182 -6 99 C-12.12994362 107.60509268 -18.21041731 116.22988364 -24.03930664 125.04223633 C-27.41753951 130.14359468 -30.85715013 135.20061821 -34.3125 140.25 C-42.19434212 151.77974211 -50.00345895 163.35838663 -57.8125 174.9375 C-58.43774567 175.86429565 -59.06299133 176.79109131 -59.70718384 177.74597168 C-60.93989098 179.57336857 -62.17232204 181.40095172 -63.40446472 183.22872925 C-64.59482247 184.99429945 -65.78589947 186.75938497 -66.97773743 188.5239563 C-69.69305533 192.54939381 -72.39076149 196.58388728 -75.04052734 200.65283203 C-75.73525398 201.71456383 -75.73525398 201.71456383 -76.4440155 202.79774475 C-77.29908284 204.10766905 -78.14849061 205.42131182 -78.99116516 206.73924255 C-79.94277369 208.19439096 -80.96438575 209.60339025 -82 211 C-82.66 211 -83.32 211 -84 211 C-84.00410889 209.88141602 -84.00821777 208.76283203 -84.01245117 207.61035156 C-84.0344505 203.40531183 -84.08895032 199.20118048 -84.15258789 194.99658203 C-84.1755884 193.18710121 -84.19012087 191.37748992 -84.19555664 189.56787109 C-84.24955142 174.54070996 -85.8699885 163.3457799 -96.71484375 152.06640625 C-99.65835507 149.40466695 -102.41372947 147.68335147 -106 146 C-106.66 145.67 -107.32 145.34 -108 145 C-108 144.34 -108 143.68 -108 143 C-106.87722656 142.50371094 -105.75445313 142.00742187 -104.59765625 141.49609375 C-96.34211418 137.77768844 -88.72433225 134.19721299 -82 128 C-81.3915625 127.47019531 -80.783125 126.94039063 -80.15625 126.39453125 C-67.98055806 115.15337707 -61.6255468 98.61741206 -60.81640625 82.296875 C-60.6956379 75.1644385 -61.19380715 68.88611023 -63 62 C-63 60.68 -63 59.36 -63 58 C-59.54078653 56.11201275 -56.07203651 54.24303626 -52.59350586 52.39086914 C-50.83241999 51.44816314 -49.07922955 50.49075564 -47.32617188 49.53320312 C-46.21435547 48.94345703 -45.10253906 48.35371094 -43.95703125 47.74609375 C-42.93585205 47.19622803 -41.91467285 46.6463623 -40.86254883 46.07983398 C-37.64376241 44.86561716 -36.23802307 45.02357423 -33 46 C-27.74700197 46.57454666 -24.23401459 46.95699091 -19.9375 43.625 C-16.9004271 39.51025607 -16.56324969 37.1536537 -17 32 C-19.12310641 28.5878647 -21.13477936 26.25051256 -25 25 C-29.04731569 24.47208926 -30.71493159 24.83864052 -34.3125 26.875 C-37.03696671 28.72041271 -37.03696671 28.72041271 -38 31 C-37.94996826 31.94939453 -37.94996826 31.94939453 -37.89892578 32.91796875 C-37.80485116 35.6338623 -38.00526337 37.45615197 -39 40 C-42.5894904 43.0499139 -46.64781236 44.96648494 -50.875 47 C-51.99003906 47.57105469 -53.10507812 48.14210938 -54.25390625 48.73046875 C-62.01384289 52.67128096 -62.01384289 52.67128096 -66 54 C-66.32871094 53.33355469 -66.65742187 52.66710937 -66.99609375 51.98046875 C-77.03722622 32.52407386 -91.34742786 22.19489495 -111 14 C-111 13.67 -111 13.34 -111 13 C-96.14331033 10.94424876 -81.29664595 8.96757991 -66.375 7.4375 C-58.5483917 6.6341745 -50.77005166 5.73838963 -43 4.5 C-34.71371685 3.17944195 -26.40506669 2.20771666 -18.0625 1.3125 C-16.84626953 1.18101562 -15.63003906 1.04953125 -14.37695312 0.9140625 C-9.56119063 0.40942485 -4.84682019 -0.07830889 0 0 Z " fill="#F5991B" transform="translate(631,295)"/>
<path d="M0 0 C7.61377006 6.14730462 13.18900314 14.66200556 16 24 C13.80269616 25.37557241 11.59510062 26.72463252 9.375 28.0625 C8.75753906 28.45244141 8.14007812 28.84238281 7.50390625 29.24414062 C4.30075061 31.14917529 2.66156628 32.04848747 -1.14453125 31.76953125 C-2.55798828 31.38861328 -2.55798828 31.38861328 -4 31 C-9.0231769 30.47124454 -12.70814051 30.22488431 -17.125 32.875 C-19.7534322 37.25572033 -20.05635856 41.01300495 -19 46 C-16.74942433 49.08798674 -16.74942433 49.08798674 -14 51 C-13.67 51.33 -13.34 51.66 -13 52 C-8.0248932 52.38270052 -4.93627205 52.17088582 -1 49 C1.31902655 46.01839444 1.98218696 44.41788438 2.14453125 40.609375 C3 37 3 37 6.08984375 34.53125 C7.35869488 33.82882669 8.64211102 33.15218791 9.9375 32.5 C10.58396484 32.14164062 11.23042969 31.78328125 11.89648438 31.4140625 C13.55525536 30.52525063 15.27517426 29.75265123 17 29 C19 30 19 30 19.60791016 31.8112793 C22.34907187 47.11296968 19.38284673 62.59665724 10.828125 75.6015625 C3.61915844 85.05948017 -3.72807127 90.50993916 -14.3984375 95.34375 C-21.04163067 98.39875423 -25.12768756 101.9560796 -30 107.3125 C-30.60328125 107.96412109 -31.2065625 108.61574219 -31.828125 109.28710938 C-34.58710309 112.28299972 -37.26578768 115.30174607 -39.8125 118.48046875 C-40.8953125 119.72763672 -40.8953125 119.72763672 -42 121 C-42.66 121 -43.32 121 -44 121 C-44.09928082 113.24506486 -44.06059488 105.68931285 -43 98 C-44.7325 98.2165625 -44.7325 98.2165625 -46.5 98.4375 C-50.56909443 98.48094229 -52.37789368 97.2522108 -55.375 94.5625 C-56.02210938 93.92441406 -56.66921875 93.28632813 -57.3359375 92.62890625 C-58.91919221 90.91286972 -58.91919221 90.91286972 -61 90 C-60.67 88.02 -60.34 86.04 -60 84 C-59.38511719 83.81824219 -58.77023437 83.63648438 -58.13671875 83.44921875 C-57.32847656 83.19785156 -56.52023437 82.94648438 -55.6875 82.6875 C-54.88699219 82.44386719 -54.08648437 82.20023437 -53.26171875 81.94921875 C-50.81493558 80.92233048 -49.5961282 80.11005183 -48 78 C-46.7579151 73.80206748 -46.54349684 70.12924465 -48.1875 66.0625 C-50.55235436 63.37145883 -52.64502666 62.23027275 -56.18359375 61.62890625 C-60.29745314 61.50770069 -62.47650408 61.6794923 -66.0625 63.875 C-68.72011903 68.1614823 -68.96262433 72.0665503 -68 77 C-67.4740625 77.65871094 -66.948125 78.31742187 -66.40625 78.99609375 C-65 81 -65 81 -65.41210938 83.62524414 C-65.60611328 84.40891357 -65.80011719 85.19258301 -66 86 C-66.64291992 85.79141357 -67.28583984 85.58282715 -67.94824219 85.36791992 C-77.6942709 82.54551411 -87.19146217 82.44706562 -97.25 82.3125 C-98.97788924 82.27925265 -100.70575493 82.24475642 -102.43359375 82.20898438 C-106.62226375 82.12494118 -110.81088824 82.05773905 -115 82 C-115 81.34 -115 80.68 -115 80 C-113.57885742 78.79492188 -113.57885742 78.79492188 -111.60546875 77.46875 C-110.89712891 76.98792969 -110.18878906 76.50710938 -109.45898438 76.01171875 C-108.33459961 75.26341797 -108.33459961 75.26341797 -107.1875 74.5 C-106.44951172 74.00113281 -105.71152344 73.50226563 -104.95117188 72.98828125 C-102.97189202 71.65204345 -100.98760153 70.3238161 -99 69 C-97.515 68.01 -97.515 68.01 -96 67 C-96.2165625 66.00742187 -96.433125 65.01484375 -96.65625 63.9921875 C-100.51469769 45.52839393 -99.89388014 29.55710554 -90 13 C-80.82736334 -0.61100923 -67.35732554 -9.99276088 -51.265625 -13.53125 C-32.14379072 -16.2760109 -15.55384176 -11.13352503 0 0 Z " fill="#133C65" transform="translate(540,331)"/>
<path d="M0 0 C1.73242447 -0.01429802 1.73242447 -0.01429802 3.49984741 -0.02888489 C5.35158066 -0.02751778 5.35158066 -0.02751778 7.24072266 -0.02612305 C8.52282623 -0.03040817 9.80492981 -0.0346933 11.12588501 -0.03910828 C13.83412829 -0.04654746 16.54224115 -0.04629635 19.25048828 -0.04101562 C22.70242536 -0.03522838 26.15382457 -0.05214444 29.60567284 -0.0753603 C32.92154417 -0.09373156 36.23730085 -0.08991041 39.55322266 -0.08862305 C40.78366302 -0.09783279 42.01410339 -0.10704254 43.28182983 -0.11653137 C49.92190362 -0.08091502 54.99210309 0.45000889 61.02978516 3.2746582 C60.40911789 6.78432784 59.49648183 9.96193081 58.21728516 13.28637695 C57.86408203 14.20870117 57.51087891 15.13102539 57.14697266 16.08129883 C56.77830078 17.03198242 56.40962891 17.98266602 56.02978516 18.9621582 C55.66111328 19.92444336 55.29244141 20.88672852 54.91259766 21.87817383 C52.19615104 28.94192644 52.19615104 28.94192644 51.02978516 31.2746582 C49.77166016 31.5221582 48.51353516 31.7696582 47.21728516 32.0246582 C43.85277484 32.81737556 43.04492492 33.25951844 40.46728516 35.8371582 C38.5840595 40.34052391 38.45057519 43.64740319 40.02978516 48.2746582 C41.81682259 51.06928058 42.92224111 51.60990247 46.02978516 53.2746582 C50.56408673 53.70612289 53.91168669 53.14118452 57.52978516 50.3371582 C60.31474844 46.50783368 60.75436859 42.93010677 60.02978516 38.2746582 C58.94697266 37.0680957 58.94697266 37.0680957 57.84228516 35.8371582 C57.24416016 34.9915332 56.64603516 34.1459082 56.02978516 33.2746582 C56.78596253 29.97988535 57.73642264 27.37203123 59.02978516 24.2746582 C59.82989387 22.16399959 60.61264384 20.04728575 61.39550781 17.93017578 C62.59031574 14.70533027 63.81058387 11.49035091 65.02978516 8.2746582 C67.6192037 8.65578474 68.80836221 9.04793806 70.66259766 10.9465332 C71.15501953 11.63231445 71.64744141 12.3180957 72.15478516 13.0246582 C72.65236328 13.70012695 73.14994141 14.3755957 73.66259766 15.0715332 C76.14881822 19.07790006 77.27698381 22.56100419 77.33618164 27.2734375 C77.35216904 28.24182053 77.36815643 29.21020355 77.3846283 30.20793152 C77.389991 31.24444351 77.3953537 32.28095551 77.40087891 33.34887695 C77.40990738 34.42788773 77.41893585 35.5068985 77.42823792 36.61860657 C77.44273023 38.90065747 77.45162461 41.18274983 77.45532227 43.46484375 C77.46718464 46.93277304 77.51635431 50.39890282 77.56689453 53.86645508 C77.57636348 56.08975374 77.58359625 58.31306327 77.58837891 60.53637695 C77.60791122 61.56276779 77.62744354 62.58915863 77.64756775 63.64665222 C77.59472974 72.20251421 75.13664387 78.61015818 69.59228516 85.1496582 C60.91823366 92.34277408 54.27346858 93.544053 43.30712891 93.4074707 C40.97053905 93.4082778 38.63394924 93.41094169 36.29736328 93.4152832 C32.63926789 93.41332582 28.98277292 93.39985337 25.32495117 93.35375977 C5.72452944 93.03129884 5.72452944 93.03129884 -10.97021484 102.2746582 C-12.8677109 103.4347471 -14.78707165 104.55993956 -16.72802734 105.64575195 C-17.62005859 106.15686523 -18.51208984 106.66797852 -19.43115234 107.19458008 C-20.31029297 107.69538086 -21.18943359 108.19618164 -22.09521484 108.7121582 C-23.01302734 109.2400293 -23.93083984 109.76790039 -24.87646484 110.31176758 C-26.19517578 111.06490234 -26.19517578 111.06490234 -27.54052734 111.83325195 C-28.32186035 112.27983154 -29.10319336 112.72641113 -29.90820312 113.18652344 C-31.97021484 114.2746582 -31.97021484 114.2746582 -34.97021484 115.2746582 C-33.59960085 111.6052296 -31.93666697 108.33606324 -29.93115234 104.97387695 C-29.35107422 103.99741211 -28.77099609 103.02094727 -28.17333984 102.01489258 C-27.57005859 101.00749023 -26.96677734 100.00008789 -26.34521484 98.9621582 C-25.73419922 97.93541992 -25.12318359 96.90868164 -24.49365234 95.85083008 C-22.9890209 93.32351945 -21.48111544 90.79822421 -19.97021484 88.2746582 C-20.38231201 87.66195068 -20.79440918 87.04924316 -21.21899414 86.41796875 C-22.02977417 85.20814331 -22.02977417 85.20814331 -22.85693359 83.97387695 C-23.39278076 83.17554443 -23.92862793 82.37721191 -24.48071289 81.5546875 C-29.65045813 73.64118958 -30.1333284 66.57133728 -30.20849609 57.38012695 C-30.22060371 55.95994011 -30.22060371 55.95994011 -30.23295593 54.51106262 C-30.24674357 52.5132528 -30.25748934 50.51541994 -30.26538086 48.51757812 C-30.27690678 46.48593179 -30.29736819 44.45431588 -30.3269043 42.42285156 C-30.36976945 39.47090298 -30.38577429 36.51984888 -30.39599609 33.56762695 C-30.41350418 32.67045456 -30.43101227 31.77328217 -30.4490509 30.84892273 C-30.41765289 21.60985596 -27.07331394 14.70798373 -20.82958984 7.99731445 C-15.01107378 2.60663045 -7.88173043 0.03593064 0 0 Z " fill="#F4991A" transform="translate(408.97021484375,422.725341796875)"/>
<path d="M0 0 C6.10222426 0.31293458 10.47809282 3.09985505 15 7 C19.41601343 12.40041642 22.09453579 17.08530241 22.19287109 24.13891602 C22.20893402 25.18753311 22.22499695 26.23615021 22.24154663 27.31654358 C22.28617777 32.1271187 22.3270902 36.93755686 22.35009766 41.74829102 C22.36661801 44.27865827 22.39385553 46.80897961 22.43212891 49.33911133 C22.48717102 52.99845455 22.50881804 56.65670358 22.5234375 60.31640625 C22.54610687 61.43656631 22.56877625 62.55672638 22.59213257 63.71083069 C22.57065612 71.77895413 21.00789669 78.73047294 15.33407593 84.77467346 C14.89383087 85.17903122 14.45358582 85.58338898 14 86 C15.35910458 89.59506384 16.96605188 92.88544684 18.85546875 96.23046875 C19.66467773 97.68163086 19.66467773 97.68163086 20.49023438 99.16210938 C21.62955272 101.19295416 22.7728393 103.22157743 23.91992188 105.24804688 C24.45552734 106.21162109 24.99113281 107.17519531 25.54296875 108.16796875 C26.03821045 109.04735107 26.53345215 109.9267334 27.04370117 110.83276367 C27.51706909 111.90554565 27.51706909 111.90554565 28 113 C27.67 113.66 27.34 114.32 27 115 C26.19892822 114.54149658 25.39785645 114.08299316 24.57250977 113.6105957 C21.55909435 111.88618837 18.54538865 110.16229045 15.53149414 108.4387207 C14.2348306 107.6970581 12.93827824 106.95520108 11.6418457 106.21313477 C9.76283534 105.13765334 7.88340684 104.06290567 6.00390625 102.98828125 C4.87799072 102.34415283 3.7520752 101.70002441 2.59204102 101.03637695 C2.01374542 100.71609024 1.43544983 100.39580353 0.83963013 100.06581116 C-0.46101341 99.31226816 -1.73043288 98.50358958 -2.97366333 97.65867615 C-9.61733016 93.38952386 -15.49748417 93.32658471 -23.25 93.43359375 C-24.50329102 93.42795914 -25.75658203 93.42232452 -27.04785156 93.41651917 C-31.03217077 93.40012974 -35.01577043 93.41534934 -39 93.4375 C-42.9841659 93.45579808 -46.96793746 93.4631348 -50.95214844 93.44776917 C-53.42415616 93.43854244 -55.8963203 93.44747316 -58.36816406 93.47740173 C-68.31167962 93.44593883 -75.02415108 91.08115783 -82.58984375 84.66015625 C-84.33189679 82.60926278 -85.0483324 80.50083468 -86 78 C-84.94200195 77.9906543 -83.88400391 77.98130859 -82.79394531 77.97167969 C-78.8125831 77.93135776 -74.8319599 77.86548972 -70.85107422 77.79248047 C-69.13860678 77.76451263 -67.42601605 77.74317973 -65.71337891 77.72900391 C-52.20233299 77.61055523 -39.26836658 76.92301793 -29 67 C-22.1202083 59.72022041 -18.66372665 51.13248759 -18.91796875 41.109375 C-18.96324707 39.91175537 -19.00852539 38.71413574 -19.05517578 37.48022461 C-19.66575532 20.2679649 -19.66575532 20.2679649 -14.71484375 13.91796875 C-11.63244295 10.66920658 -8.25493584 7.90069228 -4.63769531 5.26904297 C-2.68623819 3.75686734 -1.31126156 2.0870079 0 0 Z " fill="#133C66" transform="translate(514,448)"/>
<path d="M0 0 C4.11640411 3.00386246 6.86083431 5.90033968 9.0234375 10.4765625 C4.35677083 15.14322917 -0.30989583 19.80989583 -4.9765625 24.4765625 C-5.46125 24.01765625 -5.9459375 23.55875 -6.4453125 23.0859375 C-15.32144957 14.96085818 -22.87603352 12.12870653 -34.90625 12.26171875 C-42.54017322 12.79589913 -47.39597291 15.44042067 -52.9765625 20.4765625 C-53.6365625 20.4765625 -54.2965625 20.4765625 -54.9765625 20.4765625 C-55.2446875 21.0334375 -55.5128125 21.5903125 -55.7890625 22.1640625 C-56.9765625 24.4765625 -56.9765625 24.4765625 -58.4765625 26.7890625 C-63.05345778 34.98933321 -63.47223184 44.78767733 -61.1015625 53.8046875 C-57.52151218 63.17876664 -52.07203428 69.3777325 -42.9140625 73.59375 C-34.44776098 76.13814381 -25.19361955 75.49918119 -17.203125 71.7578125 C-10.62498645 68.11069439 -10.62498645 68.11069439 -5.9765625 62.4765625 C-1.98223469 64.09717283 0.81902071 66.86995423 3.8359375 69.8515625 C4.35091797 70.33367187 4.86589844 70.81578125 5.39648438 71.3125 C9.00541451 74.86828659 9.00541451 74.86828659 9.0859375 77.5859375 C4.55426346 85.64965159 -4.82514609 90.00626453 -12.9765625 93.4765625 C-13.74226563 93.81816406 -14.50796875 94.15976562 -15.296875 94.51171875 C-26.60780124 98.74838973 -42.92688333 98.06922751 -53.9765625 93.4765625 C-68.72013266 85.5943587 -79.33616625 75.5756692 -84.9765625 59.4765625 C-89.16993178 43.82278085 -86.97217976 29.38153563 -79.3046875 15.2890625 C-72.0524663 2.87070741 -59.32458856 -5.09336745 -45.65234375 -8.859375 C-29.21421011 -11.82906971 -14.10896123 -9.14035694 0 0 Z " fill="#143E68" transform="translate(415.9765625,620.5234375)"/>
<path d="M0 0 C7.59 0 15.18 0 23 0 C23.6290625 1.76601563 24.258125 3.53203125 24.90625 5.3515625 C30.21884756 20.25351328 35.56934585 35.14055107 41 50 C45.52048137 39.56872873 49.41072613 28.92370339 53.3125 18.25 C53.96395295 16.47387038 54.61564393 14.69782804 55.26757812 12.921875 C56.84823582 8.61573765 58.42400645 4.30785787 60 0 C67.59 0 75.18 0 83 0 C79.62584615 10.12246154 79.62584615 10.12246154 78.17822266 13.74682617 C77.85423492 14.56185104 77.53024719 15.37687592 77.19644165 16.21659851 C76.85575653 17.06680069 76.51507141 17.91700287 76.1640625 18.79296875 C75.80283295 19.70146072 75.44160339 20.6099527 75.06942749 21.54597473 C73.92364205 24.42742849 72.77472729 27.30761701 71.625 30.1875 C70.11434017 33.97152961 68.6060292 37.75647232 67.1015625 41.54296875 C66.73855042 42.4556955 66.37553833 43.36842224 66.00152588 44.30880737 C63.59402424 50.3980573 61.34628134 56.51369293 59.27880859 62.7277832 C57.49734223 67.28620123 55.18873467 71.62253065 53 76 C45.08 76 37.16 76 29 76 C25.46491991 68.39396067 22.2586396 60.7401921 19.27734375 52.90234375 C18.84998428 51.78743057 18.42262482 50.6725174 17.98231506 49.52381897 C16.63083555 45.99626371 15.28398053 42.46696603 13.9375 38.9375 C12.58651017 35.40482947 11.23455032 31.87253247 9.88197327 28.34046936 C9.04493853 26.15375675 8.20896362 23.96663804 7.37425232 21.77903748 C6.79829063 20.2718087 6.79829063 20.2718087 6.21069336 18.73413086 C5.84402557 17.77417206 5.47735779 16.81421326 5.09957886 15.82516479 C3.69379742 12.21326902 2.21439402 8.6332289 0.71363831 5.05982971 C0 3 0 3 0 0 Z " fill="#143D67" transform="translate(472,639)"/>
<path d="M0 0 C0.91644287 0.00523682 1.83288574 0.01047363 2.77709961 0.01586914 C4.26113281 0.02070312 4.26113281 0.02070312 5.77514648 0.02563477 C6.81606445 0.03401367 7.85698242 0.04239258 8.92944336 0.05102539 C10.49662109 0.05779297 10.49662109 0.05779297 12.09545898 0.06469727 C14.6859779 0.07652612 17.27646758 0.0944622 19.86694336 0.11352539 C19.86694336 7.04352539 19.86694336 13.97352539 19.86694336 21.11352539 C26.46694336 21.11352539 33.06694336 21.11352539 39.86694336 21.11352539 C39.86694336 27.05352539 39.86694336 32.99352539 39.86694336 39.11352539 C33.26694336 39.11352539 26.66694336 39.11352539 19.86694336 39.11352539 C19.9638534 44.18600114 20.06656499 49.25765456 20.18432617 54.32958984 C20.22261681 56.05510247 20.25746957 57.78069495 20.28881836 59.50634766 C20.3344674 61.98637434 20.39246116 64.4658513 20.45288086 66.94555664 C20.46443207 67.71752884 20.47598328 68.48950104 20.48788452 69.28486633 C20.59215609 73.06599213 20.72040226 74.89371374 22.86694336 78.11352539 C24.90196782 78.51604343 24.90196782 78.51604343 27.17944336 78.36352539 C28.31833008 78.34032227 28.31833008 78.34032227 29.48022461 78.31665039 C31.999866 78.10221283 34.39862991 77.65524374 36.86694336 77.11352539 C37.9023851 79.02233974 38.91984421 80.94091743 39.92944336 82.86352539 C40.7821582 84.46454102 40.7821582 84.46454102 41.65209961 86.09790039 C42.86694336 89.11352539 42.86694336 89.11352539 42.79272461 91.36743164 C41.5641371 93.68464099 40.36719553 94.23520711 37.99194336 95.30102539 C37.29327148 95.62458008 36.59459961 95.94813477 35.87475586 96.28149414 C31.27439661 98.18786869 27.09291292 98.36644411 22.17944336 98.42602539 C21.40149414 98.4550293 20.62354492 98.4840332 19.82202148 98.51391602 C12.94566643 98.58847199 7.59563543 96.76642046 2.61694336 91.92602539 C-1.86845392 84.7173512 -3.72976706 78.75452741 -3.52368164 70.26586914 C-3.51802185 69.36856583 -3.51236206 68.47126251 -3.50653076 67.54676819 C-3.48435287 64.71428344 -3.43419403 61.88312 -3.38305664 59.05102539 C-3.36296752 57.11679902 -3.344721 55.18255259 -3.32836914 53.24829102 C-3.28454943 48.53620263 -3.21565431 43.82508708 -3.13305664 39.11352539 C-6.76305664 39.11352539 -10.39305664 39.11352539 -14.13305664 39.11352539 C-14.13305664 33.17352539 -14.13305664 27.23352539 -14.13305664 21.11352539 C-10.50305664 21.11352539 -6.87305664 21.11352539 -3.13305664 21.11352539 C-3.15045898 18.96530273 -3.15045898 18.96530273 -3.16821289 16.77368164 C-3.17758919 14.90779752 -3.18668956 13.041912 -3.19555664 11.17602539 C-3.20393555 10.23049805 -3.21231445 9.2849707 -3.22094727 8.31079102 C-3.22416992 7.41166992 -3.22739258 6.51254883 -3.23071289 5.58618164 C-3.23594971 4.75352783 -3.24118652 3.92087402 -3.24658203 3.06298828 C-3.08550211 0.29691688 -2.76517731 0.14716807 0 0 Z " fill="#174068" transform="translate(615.133056640625,617.886474609375)"/>
<path d="M0 0 C7.59 0 15.18 0 23 0 C23 25.41 23 50.82 23 77 C15.41 77 7.82 77 0 77 C0 51.59 0 26.18 0 0 Z " fill="#19426A" transform="translate(438,639)"/>
<path d="M0 0 C7.26 0 14.52 0 22 0 C22 25.08 22 50.16 22 76 C14.74 76 7.48 76 0 76 C0 50.92 0 25.84 0 0 Z " fill="#133B64" transform="translate(670,639)"/>
<path d="M0 0 C7.26 0 14.52 0 22 0 C22 25.08 22 50.16 22 76 C14.74 76 7.48 76 0 76 C0 50.92 0 25.84 0 0 Z " fill="#133C65" transform="translate(565,639)"/>
<path d="M0 0 C3.19026198 2.10267267 4.88874348 3.44792091 6.75 6.8125 C7.42301829 11.40263599 7.28852282 15.40635708 5.625 19.75 C2.61381347 23.06230518 -0.18520421 24.53719389 -4.65234375 25.1328125 C-9.03098644 25.33034525 -11.75077559 25.05319748 -15.75 23.125 C-19.64036496 19.52641241 -20.35036369 16.52713436 -20.6875 11.375 C-20.61402795 7.98398221 -20.12077679 6.03739055 -18 3.375 C-12.47411174 -1.77412315 -7.12707617 -2.60412398 0 0 Z " fill="#163F6A" transform="translate(583.25,603.1875)"/>
<path d="M0 0 C3.02913901 2.74064958 4.37421838 4.47550437 5.625 8.375 C5.81889902 12.94778525 5.22686848 16.36472076 2.875 20.3125 C-1.61307129 24.42656534 -6.00149258 24.88158212 -11.93359375 24.7578125 C-16.04628254 24.1129429 -17.62331177 22.47064926 -20.375 19.375 C-22.44898081 15.69839766 -22.88733197 12.5590444 -22.375 8.375 C-17.23796641 -0.65909355 -10.01307404 -4.82110972 0 0 Z " fill="#18406B" transform="translate(689.375,603.625)"/>
<path d="M0 0 C3.95215917 2.08793315 6.63625364 4.21936822 9 8 C9.74700572 12.5040051 9.52328795 16.70555085 7.8125 20.9375 C4.94696659 24.1982794 2.84990034 25.71363772 -1.5234375 26.390625 C-6.63123417 26.6984922 -10.09914151 26.53129155 -14.125 23.1875 C-17.3634291 20.0497876 -17.9557951 17.68517592 -18.25 13.125 C-18.17217351 9.26197611 -17.58828051 7.00574511 -15 4 C-9.80200607 0.22890637 -6.39103136 -0.81155954 0 0 Z " fill="#163F6A" transform="translate(454,602)"/>
<path d="M0 0 C2 3 2 3 2 6 C1.08476563 6.38929688 0.16953125 6.77859375 -0.7734375 7.1796875 C-7.60949265 10.05487026 -7.60949265 10.05487026 -12.1328125 15.515625 C-12.37461614 17.23397426 -12.56234511 18.96093337 -12.69140625 20.69140625 C-13 23 -13 23 -15.4375 26.0625 C-19.55941732 29.17907163 -22.92113945 29.51649429 -28 29 C-30.97551795 27.22396702 -33.42755188 25.14489623 -35 22 C-35.41948626 18.6141466 -35.49414522 15.37931569 -35 12 C-32.5625 8.9375 -32.5625 8.9375 -30 7 C-29.67 6.67 -29.34 6.34 -29 6 C-27.44013888 5.90012189 -25.87554847 5.87032721 -24.3125 5.875 C-23.46300781 5.87242187 -22.61351562 5.86984375 -21.73828125 5.8671875 C-19 6 -19 6 -16.09765625 6.72265625 C-11.8693191 7.10123373 -9.75734227 5.67518887 -6.125 3.5625 C-5.53203125 3.22412109 -4.9390625 2.88574219 -4.328125 2.53710938 C-2.87687398 1.70615113 -1.43718266 0.85505971 0 0 Z " fill="#F6F8F8" transform="translate(555,355)"/>
<path d="M0 0 C5.28 0 10.56 0 16 0 C16 0.33 16 0.66 16 1 C15.07316406 1.06058594 14.14632812 1.12117187 13.19140625 1.18359375 C11.39509766 1.30927734 11.39509766 1.30927734 9.5625 1.4375 C8.36753906 1.51871094 7.17257812 1.59992187 5.94140625 1.68359375 C3.11429756 1.67656114 3.11429756 1.67656114 2 3 C1.76298761 5.85877909 1.57780818 8.69883297 1.4375 11.5625 C1.39431641 12.36880859 1.35113281 13.17511719 1.30664062 14.00585938 C1.20024738 16.00368805 1.09959112 18.0018207 1 20 C0.67 20 0.34 20 0 20 C0 13.4 0 6.8 0 0 Z " fill="#08325C" transform="translate(613,619)"/>
<path d="M0 0 C0.99 0.33 1.98 0.66 3 1 C1.625 3 1.625 3 0 5 C-0.66 5 -1.32 5 -2 5 C-2.33 5.99 -2.66 6.98 -3 8 C-3.99 7.34 -4.98 6.68 -6 6 C-4.02 4.02 -2.04 2.04 0 0 Z " fill="#0B3963" transform="translate(348,623)"/>
<path d="M0 0 C0.99 1.32 1.98 2.64 3 4 C-1.75 8 -1.75 8 -4 8 C-2.87548273 5.0280615 -1.77706209 2.66559313 0 0 Z " fill="#F6AA3B" transform="translate(378,530)"/>
<path d="M0 0 C1.32 0.33 2.64 0.66 4 1 C4.33 2.32 4.66 3.64 5 5 C4.01 5 3.02 5 2 5 C1.34 3.35 0.68 1.7 0 0 Z " fill="#1D4970" transform="translate(429,527)"/>
<path d="M0 0 C0.66 0.33 1.32 0.66 2 1 C0.35 2.98 -1.3 4.96 -3 7 C-3.66 6.34 -4.32 5.68 -5 5 C-3.35 3.35 -1.7 1.7 0 0 Z " fill="#2C5276" transform="translate(460,332)"/>
</svg>
